<?xml version="1.0" encoding="utf-8"?>
<!-- Generator: Adobe Illustrator 16.0.0, SVG Export Plug-In . SVG Version: 6.00 Build 0)  -->
<!DOCTYPE svg PUBLIC "-//W3C//DTD SVG 1.1//EN" "http://www.w3.org/Graphics/SVG/1.1/DTD/svg11.dtd">
<svg version="1.1" id="Layer_1" xmlns="http://www.w3.org/2000/svg" xmlns:xlink="http://www.w3.org/1999/xlink" x="0px" y="0px"
	 width="149px" height="68px" viewBox="0 0 149 68" enable-background="new 0 0 149 68" xml:space="preserve">
<path id="path1575" fill="#FFFFFF" d="M63.792,0.053c-0.113,0.001-0.229,0.007-0.345,0.016c-4.594,0.793-7.12,5.651-7.485,9.935
	c-0.535,3.887,1.178,8.883,5.446,9.754c0.619,0.118,1.262,0.064,1.867-0.1c5.14-1.723,7.44-7.811,6.697-12.852
	C69.756,3.549,67.302,0.008,63.792,0.053z M44.316,0.261c-2.856,0.07-5.082,2.967-5.534,5.69c-0.955,5.396,1.5,12.1,7.121,13.806
	c0.527,0.115,1.071,0.126,1.603,0.044c3.799-0.634,5.409-4.894,5.25-8.332c-0.115-4.537-2.471-9.781-7.182-11.057
	C45.144,0.299,44.724,0.251,44.316,0.261z M79.436,12.755c-4.942,0.296-8.33,5.226-8.813,9.831
	c-0.653,3.321,1.117,7.762,4.906,8.027c5.283-0.064,8.887-5.71,9.036-10.567C84.899,16.832,83.007,12.933,79.436,12.755z
	 M29.792,13.849c-2.102-0.018-4.17,1.241-4.857,3.378c-1.833,5.717,1.848,12.958,7.903,14.16c2.527,0.431,4.748-1.509,5.375-3.844
	c1.328-4.994-1.399-10.793-6.016-13.06C31.444,14.06,30.614,13.856,29.792,13.849z M55.29,23.37
	c-5.135,0.011-10.35,2.616-13.675,6.495c-3.591,4.521-6.533,9.782-7.684,15.487c-1.398,4.107,1.771,8.834,6.161,8.862
	c5.282,0.146,9.821-8.574,15.073-8.843c4.456-0.681,8.445,6.732,12.452,8.248c3.412,1.459,8.125,0.9,9.866-2.771
	c1.37-3.741-0.646-7.73-2.317-11.054c-3.406-5.393-7.056-11.061-12.642-14.429C60.286,23.979,57.797,23.364,55.29,23.37z"/>
<g>
	<path fill="#FFFFFF" d="M20.521,28.722l-0.798,3.743c1.447-1.248,3.343-2.146,5.839-2.146c3.394,0,6.089,1.946,6.089,7.886
		c0,6.737-2.596,17.618-12.278,17.618c-2.495,0-3.692-0.85-4.242-1.798l-2.595,12.178L5,68l8.335-39.278H20.521z M24.813,38.056
		c0-3.843-1.597-4.143-2.495-4.143c-1.098,0-2.495,0.849-3.444,2.446L15.93,50.332c0.2,0.549,0.749,1.148,1.896,1.148
		C23.066,51.48,24.813,42.746,24.813,38.056z"/>
</g>
<g>
	<path fill="#FFFFFF" d="M91.132,30.569l-3.593,16.969c-0.1,0.398-0.149,0.849-0.149,1.247c0,1.147,0.349,2.195,1.497,2.195
		c1.946,0,3.244-1.896,3.992-4.391l3.395-16.021h7.186l-3.593,16.969c-0.149,0.698-0.25,1.347-0.25,1.796
		c0,0.998,0.499,1.646,1.697,1.646c4.892,0,8.634-11.179,8.634-16.668c-0.149,0.35-1.197,0.5-1.597,0.5
		c-1.197,0-1.797-1.448-1.797-2.546c0-1.547,0.998-2.695,3.094-2.695c2.396,0,3.145,2.146,3.145,4.342
		c0,7.985-4.042,21.911-14.224,21.911c-3.243,0-5.39-1.398-5.988-4.193c-2.446,3.594-5.092,4.193-7.088,4.193
		c-2.994,0-5.34-1.798-5.34-5.99c0-0.948,0.15-2.046,0.399-3.243l3.394-16.021H91.132z"/>
	<path fill="#FFFFFF" d="M120.779,44.443h-10.031l0.898-3.943h9.981L120.779,44.443z"/>
	<path fill="#FFFFFF" d="M133.107,34.911c-1.797,0-3.144,2.096-3.893,4.591l-3.394,16.021h-7.187l5.289-24.954h7.188l-0.549,2.595
		c2.096-2.396,4.292-2.795,5.839-2.795c3.193,0,5.539,1.647,5.539,5.64c0,4.043-2.395,10.081-2.395,12.876
		c0,1.248,0.498,2.096,1.996,2.096c0.849,0,1.347-0.1,1.646-0.299c-0.449,3.594-2.845,5.142-5.489,5.142
		c-3.843,0-5.041-2.796-5.041-5.641c0-3.394,2.246-9.532,2.246-12.727C134.904,35.81,134.305,34.911,133.107,34.911z"/>
</g>
</svg>
